<svg id="Layer_1" data-name="Layer 1" xmlns="http://www.w3.org/2000/svg" viewBox="0 0 188 28"><defs><style>.cls-1{fill:#d2072a}</style></defs><title>VK-logo</title><path class="cls-1" d="M75.55 17.83l-1 4.73A1.84 1.84 0 0 1 72.78 24h-.13a1.2 1.2 0 0 1-1.17-1.49l1-4.73a1.8 1.8 0 0 1 1.77-1.38h.13a1.2 1.2 0 0 1 1.16 1.49m6.2-1.17a3.65 3.65 0 0 0-1.49-1.36 7.92 7.92 0 0 0-2.35-.75 19.6 19.6 0 0 0-3.15-.22 20.25 20.25 0 0 0-3.67.3 9.84 9.84 0 0 0-2.89 1 6.3 6.3 0 0 0-2.1 1.8 6.86 6.86 0 0 0-1.18 2.73 7.66 7.66 0 0 0-.15 1.44 3.78 3.78 0 0 0 .52 2.05 3.61 3.61 0 0 0 1.5 1.29 7.92 7.92 0 0 0 2.35.74 18.36 18.36 0 0 0 3.15.24 20.25 20.25 0 0 0 3.67-.3 9.94 9.94 0 0 0 2.89-1 6.13 6.13 0 0 0 2.08-1.8 6.8 6.8 0 0 0 1.18-2.73 7 7 0 0 0 .17-1.44 3.75 3.75 0 0 0-.52-2m61.59 1.12l-1 4.73a1.84 1.84 0 0 1-1.78 1.44h-.13a1.2 1.2 0 0 1-1.16-1.49l1-4.73a1.82 1.82 0 0 1 1.78-1.38h.12a1.2 1.2 0 0 1 1.17 1.49m6.2-1.17A3.62 3.62 0 0 0 148 15.3a7.76 7.76 0 0 0-2.34-.75 19.65 19.65 0 0 0-3.16-.22 20.21 20.21 0 0 0-3.66.3 9.84 9.84 0 0 0-2.89 1 6.3 6.3 0 0 0-2.1 1.8 6.86 6.86 0 0 0-1.18 2.73 7.66 7.66 0 0 0-.15 1.44 3.87 3.87 0 0 0 .51 2.05 3.7 3.7 0 0 0 1.5 1.34 7.83 7.83 0 0 0 2.35.74 18.36 18.36 0 0 0 3.15.24 20.33 20.33 0 0 0 3.67-.3 9.94 9.94 0 0 0 2.89-1 6.23 6.23 0 0 0 2.08-1.8 6.66 6.66 0 0 0 1.17-2.73 6.44 6.44 0 0 0 .18-1.44 3.84 3.84 0 0 0-.52-2m-65.92 2.36c.36-1.74.63-3.18.79-4.31h6.35l-.33 1.92A7 7 0 0 1 96 14.33a8.6 8.6 0 0 1 1.52.14 5 5 0 0 1 1.44.52 2.92 2.92 0 0 1 1.1 1.08 3.39 3.39 0 0 1 .43 1.79 6.5 6.5 0 0 1-.15 1.31l-1.4 6.57h-6.49l1.25-5.89a4.48 4.48 0 0 0 .11-.88 1.31 1.31 0 0 0-.35-1 1.61 1.61 0 0 0-1.06-.3 2.31 2.31 0 0 0-1.72.66 3.87 3.87 0 0 0-.93 1.94l-1.16 5.48h-6.44zm67.79 0c.37-1.74.63-3.18.79-4.31h6.35l-.33 1.92a7 7 0 0 1 5.52-2.34 8.6 8.6 0 0 1 1.52.14 4.87 4.87 0 0 1 1.44.52 2.92 2.92 0 0 1 1.1 1.08 3.39 3.39 0 0 1 .43 1.79 6.5 6.5 0 0 1-.15 1.31l-1.4 6.57h-6.44l1.25-5.89a4.48 4.48 0 0 0 .11-.88 1.31 1.31 0 0 0-.35-1 1.61 1.61 0 0 0-1.06-.3 2.28 2.28 0 0 0-1.71.66 3.87 3.87 0 0 0-.93 1.94l-1.16 5.48H150zM31.59 17.83L31.34 19h-3.09l.27-1.27a1.81 1.81 0 0 1 1.77-1.38h.14a1.2 1.2 0 0 1 1.16 1.49m6.2-1.17a3.62 3.62 0 0 0-1.5-1.36 7.76 7.76 0 0 0-2.29-.76 19.69 19.69 0 0 0-3.15-.22 20.44 20.44 0 0 0-3.68.3 9.87 9.87 0 0 0-2.88 1 6.3 6.3 0 0 0-2.1 1.8A6.86 6.86 0 0 0 21 20.14a7.66 7.66 0 0 0-.15 1.44 3.87 3.87 0 0 0 .51 2.05A3.7 3.7 0 0 0 22.82 25a7.73 7.73 0 0 0 2.35.74 18.36 18.36 0 0 0 3.15.24 20.41 20.41 0 0 0 3.67-.3 9.87 9.87 0 0 0 2.88-1A6.17 6.17 0 0 0 37 22.87a4.78 4.78 0 0 0 .44-.69h-6.77l-.08.38A1.84 1.84 0 0 1 28.81 24h-.13a1.2 1.2 0 0 1-1.16-1.49l.06-.27.34-1.63H38l.09-.41a6.44 6.44 0 0 0 .18-1.44 3.84 3.84 0 0 0-.52-2m141.86 1.07l-.25 1.17h-3.09l.27-1.27a1.81 1.81 0 0 1 1.77-1.38h.13a1.2 1.2 0 0 1 1.17 1.49m6.2-1.17a3.74 3.74 0 0 0-1.5-1.36 7.76 7.76 0 0 0-2.34-.75 19.82 19.82 0 0 0-3.16-.22 20.41 20.41 0 0 0-3.67.3 9.87 9.87 0 0 0-2.88 1 6.3 6.3 0 0 0-2.1 1.8 6.73 6.73 0 0 0-1.16 2.7 7.73 7.73 0 0 0-.16 1.44 3.87 3.87 0 0 0 .52 2.05 3.64 3.64 0 0 0 1.5 1.34 7.76 7.76 0 0 0 2.34.74 18.48 18.48 0 0 0 3.16.24 20.41 20.41 0 0 0 3.67-.3 9.87 9.87 0 0 0 2.88-1 6.17 6.17 0 0 0 2.09-1.8 5.82 5.82 0 0 0 .44-.69h-6.74l-.08.38a1.82 1.82 0 0 1-1.79 1.46h-.13a1.19 1.19 0 0 1-1.16-1.49l.05-.27.35-1.63h10.12l.09-.41a6.39 6.39 0 0 0 .17-1.44 3.84 3.84 0 0 0-.51-2M1.68 14.74l3.4 11h9.7L27.42 7.67h-4.08L12.62 22.84l-2.49-8.1H1.68z"/><path class="cls-1" d="M60.88 18.54l3.71-3.8h-4.76l-3.63 4.23h-1.34l2.75-11.29h-6.44l-4.39 18.06h6.44l1.07-4.41h.93l2.59 4.41h7.45l-4.38-7.2zm-13.38-3.8l-2.86 11H38.2l2.86-11h6.44zm.36-2.52c-.3 1.4-1.9 2-3.5 2s-2.94-.61-2.64-2 1.75-2 3.5-2 2.91.75 2.64 2"/><path class="cls-1" d="M125.28 11.89l7.41 13.85h-9l-5.05-9.9h-1.24l-2.14 9.9h-8.92l4.31-19.93H1.68l1.73-3.76h116.98l-2.44 11.27h.95l9.85-11.27h5.43l-8.9 9.84z"/></svg>