<svg data-name="Vertek Logo" height="61px" viewBox="0 0 304.8 93.6" width="200px" xmlns="http://www.w3.org/2000/svg">
<defs>
<style>
.vertek-logo-1{fill:#00b1eb;}
.vertek-logo-2{fill:#007dbc;}
.vertek-logo-3{fill:#000;}
.vertek-logo-bg{fill:#fff;}
</style>
</defs>
<path class="vertek-logo-bg" d="M.18,6.5V0h305V93.86H65.46c.08-.07.17-.21.25-.21,3.9-.2,6.86-3,7.58-7.24l6.48-23.79q7.1-26,14.19-52.08A7.93,7.93,0,0,0,80,3.44c-3.24,4-6.46,7.94-9.7,11.9s-6.59,8-9.89,12c-.25-1-.5-2-.73-3-1.35-6-2.63-12-4.05-18A7.85,7.85,0,0,0,48.13.26Q27.91.25,7.7.26A6.58,6.58,0,0,0,2.46,2.51,26.45,26.45,0,0,0,.18,6.5ZM112.07,21.34H111c-2.15,0-2.43.38-1.83,2.5q2.75,9.66,5.5,19.32,3.59,12.54,7.16,25.07a6.19,6.19,0,0,0,4.43,4.62c4.35,1.15,8.38-.25,9.79-5.4,2.93-10.68,6-21.33,9-32,1.14-4,2.29-8,3.41-12.08.45-1.61.12-2-1.53-2-1,0-1.92.07-2.87,0-1.26-.11-1.76.48-2.08,1.61Q136.5,43.12,130.93,63.3a36.08,36.08,0,0,1-1.07,3.54,1.55,1.55,0,0,1-1.09.89c-.38,0-.85-.48-1.11-.87a4.31,4.31,0,0,1-.46-1.35Q121.56,44.93,116,24.33C115,20.77,115.15,21.39,112.07,21.34Zm44.75,34.32h1.67c7,0,14.07,0,21.11,0,1.09,0,1.84-.29,1.8-1.51a69.33,69.33,0,0,0-.33-7.77c-.62-4.42-2.61-8.12-6.68-10.36a18,18,0,0,0-10.7-1.73c-6.05.59-10.64,4.26-12,10.17a43.8,43.8,0,0,0-.24,17.26c1.06,6.5,5.67,10.52,12.21,11.27a51.22,51.22,0,0,0,13.6-.67c3.51-.55,3.14-.45,3.15-3.72,0-1.43-.36-1.61-1.84-1.52-4.54.26-9.09.62-13.63.57-3.87,0-6.41-2.31-7.29-6.07C157.18,59.71,157.09,57.75,156.82,55.66Zm87.85,0h22.74c1.52,0,1.84-.3,1.85-1.82,0-1.72.06-3.44-.06-5.15-.29-4.4-1.52-8.42-5.06-11.37-3.09-2.57-6.78-3.24-10.66-3.17-7.47.12-12.77,4.08-14.16,11a44.67,44.67,0,0,0-.14,16.22c1.15,7,5.5,10.83,12.62,11.68a48.68,48.68,0,0,0,13.36-.71c3.07-.49,3.07-.5,3.06-3.54,0-1.63-.29-1.76-1.92-1.66-4.5.27-9,.61-13.51.55-3.94,0-6.47-2.32-7.34-6.16A58.55,58.55,0,0,1,244.67,55.66Zm39-4.87V24.5c0-3.86.45-3.89-3.82-3.84-1.95,0-2.26.33-2.26,2.32V71.22a1.4,1.4,0,0,0,1.49,1.51c1,0,2,0,3,0a1.42,1.42,0,0,0,1.6-1.63c0-1.84,0-3.68,0-5.52V55.2L284,55a4.82,4.82,0,0,0,.41.69q5.68,7,11.37,14.08c2.38,3,2.36,3,6.13,3a9.87,9.87,0,0,0,1.44,0c.48-.07,1.32-.23,1.33-.41a2.44,2.44,0,0,0-.43-1.6C300.61,66.32,297,62,293.36,57.59c-1.37-1.64-2.72-3.3-4.08-5,.2-.23.3-.35.41-.46q7.28-7.87,14.54-15.77a1.53,1.53,0,0,0,.44-1.23c-.12-.29-.75-.51-1.17-.54-1.27-.06-2.56,0-3.83,0a3,3,0,0,0-2.7,1.2c-2.81,3.23-5.67,6.41-8.51,9.6C286.94,47.12,285.4,48.83,283.66,50.79ZM224.54,34.62c0-2.45,0-4.76,0-7.07,0-1.43-.42-1.77-1.84-1.54-.83.13-1.65.28-2.48.4-1.55.22-1.84.53-1.84,2.07,0,2,0,4,0,6.14-2.2,0-4.27,0-6.34,0-.48,0-1.31.23-1.36.47a8.18,8.18,0,0,0-.13,3.15c.08.4,1.11.75,1.76.85,2,.31,4,.48,6.07.72v1.31c0,7.4,0,14.79,0,22.18a28.73,28.73,0,0,0,.21,3.47c.41,3.55,2.39,5.79,5.65,6.13a34.7,34.7,0,0,0,6.2.09c3.27-.23,3.24-.32,3.15-3.53,0-.94-.44-1.3-1.32-1.3-1.4,0-2.8,0-4.19,0-2.61,0-3.48-.85-3.5-3.46-.05-8.16,0-16.31,0-24.46a1.72,1.72,0,0,1,0-.29c.07-.07.1-.12.13-.12l5.4,0c3.29,0,3.36-.07,3.29-3.33,0-1.35-.53-1.86-1.9-1.87Zm-28.77,2.5c-.42-2.5-.42-2.5-3.24-2.5h-.24c-2.38,0-2.55.17-2.55,2.48V68.18c0,1,0,2.08,0,3.12a1.32,1.32,0,0,0,1.42,1.43c.88,0,1.76,0,2.64,0,1.67,0,2-.36,2-2,0-9.08,0-18.16,0-27.24a1.47,1.47,0,0,1,.86-1.5,17.23,17.23,0,0,1,8.42-2.39c1.47,0,1.76-.33,1.78-1.76,0-.72,0-1.44,0-2.16a1.28,1.28,0,0,0-1.55-1.49,18.18,18.18,0,0,0-4.11.66C199.33,35.43,197.56,36.34,195.77,37.12Z"></path>
<path class="vertek-logo-1" d="M.18,6.5a26.45,26.45,0,0,1,2.28-4A6.58,6.58,0,0,1,7.7.26q20.21,0,40.43,0a7.85,7.85,0,0,1,7.52,6.09c1.42,6,2.7,12,4.05,18,.23,1,.48,2,.73,3a5.69,5.69,0,0,0,.06.83c.95,4.31,1.92,8.61,2.86,12.92q5,22.65,9.94,45.3c-.72,4.2-3.68,7-7.58,7.24-.08,0-.17.14-.25.21h-.72c-.12-.08-.24-.21-.37-.23a8.54,8.54,0,0,1-5.88-3.73q-26-35.33-52-70.65c-2.27-3.1-5-5.9-6.35-9.63Z"></path>
<path class="vertek-logo-bg" d="M.18,9.62c1.33,3.73,4.08,6.53,6.35,9.63q25.93,35.36,52,70.65a8.54,8.54,0,0,0,5.88,3.73c.13,0,.25.15.37.23H.18Z"></path>
<path class="vertek-logo-2" d="M73.29,86.41q-5-22.65-9.94-45.3c-.94-4.31-1.91-8.61-2.86-12.92a5.69,5.69,0,0,1-.06-.83q4.95-6,9.89-12c3.24-4,6.46-7.94,9.7-11.9A7.93,7.93,0,0,1,94,10.54q-7.08,26-14.19,52.08Z"></path>
<path class="vertek-logo-3" d="M112.07,21.34c3.08.05,2.92-.57,3.88,3q5.6,20.61,11.25,41.18a4.31,4.31,0,0,0,.46,1.35c.26.39.73.88,1.11.87a1.55,1.55,0,0,0,1.09-.89,36.08,36.08,0,0,0,1.07-3.54Q136.48,43.11,142,22.93c.32-1.13.82-1.72,2.08-1.61,1,.09,1.91,0,2.87,0,1.65,0,2,.43,1.53,2-1.12,4-2.27,8.06-3.41,12.08-3,10.66-6.09,21.31-9,32-1.41,5.15-5.44,6.55-9.79,5.4a6.19,6.19,0,0,1-4.43-4.62q-3.6-12.54-7.16-25.07-2.75-9.66-5.5-19.32c-.6-2.12-.32-2.5,1.83-2.5Z"></path>
<path class="vertek-logo-3" d="M156.82,55.66c.27,2.09.36,4.05.8,5.93.88,3.76,3.42,6,7.29,6.07,4.54,0,9.09-.31,13.63-.57,1.48-.09,1.84.09,1.84,1.52,0,3.27.36,3.17-3.15,3.72a51.22,51.22,0,0,1-13.6.67c-6.54-.75-11.15-4.77-12.21-11.27a43.8,43.8,0,0,1,.24-17.26c1.39-5.91,6-9.58,12-10.17A18,18,0,0,1,174.39,36c4.07,2.24,6.06,5.94,6.68,10.36a69.33,69.33,0,0,1,.33,7.77c0,1.22-.71,1.52-1.8,1.51-7,0-14.07,0-21.11,0Zm18.49-4.77c-.22-4,0-8.16-4.2-10.25a9.88,9.88,0,0,0-10.68.66c-3.23,2.34-3.36,6-3.4,9.59Z"></path>
<path class="vertek-logo-3" d="M244.67,55.66a58.55,58.55,0,0,0,.78,5.84c.87,3.84,3.4,6.12,7.34,6.16,4.5.06,9-.28,13.51-.55,1.63-.1,1.92,0,1.92,1.66,0,3,0,3-3.06,3.54A48.68,48.68,0,0,1,251.8,73c-7.12-.85-11.47-4.66-12.62-11.68a44.67,44.67,0,0,1,.14-16.22c1.39-6.89,6.69-10.85,14.16-11,3.88-.07,7.57.6,10.66,3.17,3.54,3,4.77,7,5.06,11.37.12,1.71.06,3.43.06,5.15,0,1.52-.33,1.82-1.85,1.82H244.67Zm18.47-4.76c-.18-4,0-8.07-4.06-10.2a9.91,9.91,0,0,0-10.69.51c-3.33,2.32-3.48,6-3.52,9.69Z"></path>
<path class="vertek-logo-3" d="M283.66,50.79c1.74-2,3.28-3.67,4.8-5.39,2.84-3.19,5.7-6.37,8.51-9.6a3,3,0,0,1,2.7-1.2c1.27.09,2.56,0,3.83,0,.42,0,1.05.25,1.17.54a1.53,1.53,0,0,1-.44,1.23Q297,44.32,289.69,52.18c-.11.11-.21.23-.41.46,1.36,1.65,2.71,3.31,4.08,5C297,62,300.61,66.32,304.2,70.71a2.44,2.44,0,0,1,.43,1.6c0,.18-.85.34-1.33.41a9.87,9.87,0,0,1-1.44,0c-3.77,0-3.75,0-6.13-3q-5.67-7.05-11.37-14.08A4.82,4.82,0,0,1,284,55l-.29.2V65.59c0,1.84,0,3.68,0,5.52a1.42,1.42,0,0,1-1.6,1.63c-1,0-2,0-3,0a1.4,1.4,0,0,1-1.49-1.51V23c0-2,.31-2.3,2.26-2.32,4.27-.05,3.82,0,3.82,3.84Z"></path>
<path class="vertek-logo-3" d="M224.54,34.62h7c1.37,0,1.87.52,1.9,1.87.07,3.26,0,3.33-3.29,3.33l-5.4,0s-.06,0-.13.12a1.72,1.72,0,0,0,0,.29c0,8.15,0,16.3,0,24.46,0,2.61.89,3.41,3.5,3.46,1.39,0,2.79,0,4.19,0,.88,0,1.29.36,1.32,1.3.09,3.21.12,3.3-3.15,3.53a34.7,34.7,0,0,1-6.2-.09c-3.26-.34-5.24-2.58-5.65-6.13a28.73,28.73,0,0,1-.21-3.47c0-7.39,0-14.78,0-22.18V39.83c-2.06-.24-4.08-.41-6.07-.72-.65-.1-1.68-.45-1.76-.85a8.18,8.18,0,0,1,.13-3.15c0-.24.88-.46,1.36-.47,2.07,0,4.14,0,6.34,0,0-2.1,0-4.12,0-6.14,0-1.54.29-1.85,1.84-2.07.83-.12,1.65-.27,2.48-.4,1.42-.23,1.84.11,1.84,1.54C224.55,29.86,224.54,32.17,224.54,34.62Z"></path>
<path class="vertek-logo-3" d="M195.77,37.12c1.79-.78,3.56-1.69,5.43-2.3a18.18,18.18,0,0,1,4.11-.66,1.28,1.28,0,0,1,1.55,1.49c0,.72,0,1.44,0,2.16,0,1.43-.31,1.77-1.78,1.76A17.23,17.23,0,0,0,196.66,42a1.47,1.47,0,0,0-.86,1.5c0,9.08,0,18.16,0,27.24,0,1.68-.35,2-2,2-.88,0-1.76,0-2.64,0a1.32,1.32,0,0,1-1.42-1.43c0-1,0-2.08,0-3.12V37.1c0-2.31.17-2.48,2.55-2.48h.24C195.35,34.62,195.35,34.62,195.77,37.12Z"></path>
<path class="vertek-logo-bg" d="M175.31,50.89H157c0-3.62.17-7.25,3.4-9.59a9.88,9.88,0,0,1,10.68-.66C175.28,42.73,175.09,46.88,175.31,50.89Z"></path>
<path class="vertek-logo-bg" d="M263.14,50.9H244.87c0-3.69.19-7.37,3.52-9.69a9.91,9.91,0,0,1,10.69-.51C263.12,42.83,263,46.93,263.14,50.9Z"></path>
</svg>